<?xml version="1.0" encoding="utf-8"?>
<!-- Generator: Adobe Illustrator 17.0.0, SVG Export Plug-In . SVG Version: 6.00 Build 0)  -->
<!DOCTYPE svg PUBLIC "-//W3C//DTD SVG 1.1//EN" "http://www.w3.org/Graphics/SVG/1.1/DTD/svg11.dtd">
<svg version="1.1" id="Layer_1" xmlns="http://www.w3.org/2000/svg" xmlns:xlink="http://www.w3.org/1999/xlink" x="0px" y="0px"
	 width="300px" height="300px" viewBox="0 0 300 300" enable-background="new 0 0 300 300" xml:space="preserve">
<g>
	<path fill="#E9E9E9" d="M260.957,115.057c0,8.602-1.606,16.8-4.811,24.596c-3.207,7.799-7.87,14.757-13.992,20.879l-6.34,6.122
		c5.537,4.519,9.947,10.057,13.227,16.616s4.919,13.702,4.919,21.426c0,6.706-1.277,13.046-3.825,19.021
		c-2.552,5.978-6.051,11.188-10.495,15.632c-4.447,4.448-9.657,7.942-15.632,10.494c-5.978,2.549-12.318,3.826-19.021,3.826
		c-7.728,0-14.867-1.64-21.426-4.919c-6.56-3.28-12.1-7.687-16.616-13.228l-12.899,13.118c-0.73,0.581-1.53,1.056-2.404,1.421
		c-0.875,0.362-1.749,0.547-2.624,0.547s-1.749-0.185-2.624-0.547c-0.875-0.365-1.677-0.84-2.405-1.421l-88.108-88.108
		c-6.122-6.122-10.788-13.08-13.992-20.879c-3.208-7.796-4.81-15.994-4.81-24.596c0-8.598,1.602-16.797,4.81-24.596
		c3.204-7.796,7.871-14.758,13.992-20.879c6.265-6.265,13.336-10.966,21.207-14.102c7.871-3.133,15.922-4.701,24.159-4.701
		c8.233,0,16.322,1.568,24.268,4.701c7.942,3.136,15.048,7.836,21.316,14.102c0.291,0.438,0.619,0.84,0.984,1.203
		c0.362,0.365,0.765,0.765,1.203,1.202c0.437-0.437,0.837-0.837,1.202-1.202c0.362-0.362,0.69-0.765,0.984-1.203
		c6.265-6.265,13.37-10.966,21.316-14.102c7.942-3.133,16.032-4.701,24.268-4.701c8.233,0,16.288,1.568,24.159,4.701
		c7.871,3.136,14.938,7.836,21.207,14.102c6.122,6.122,10.785,13.083,13.992,20.879C259.351,98.26,260.957,106.459,260.957,115.057z
		 M214.498,156.707c3.132,0.656,6.084,1.568,8.854,2.733l8.964-8.964c4.662-4.663,8.27-10.057,10.822-16.179
		c2.548-6.122,3.825-12.534,3.825-19.24c0-6.702-1.277-13.118-3.825-19.239c-2.553-6.122-6.16-11.587-10.822-16.397
		c-4.957-4.81-10.532-8.451-16.726-10.932c-6.197-2.477-12.5-3.717-18.912-3.717c-6.415,0-12.718,1.24-18.911,3.717
		c-6.196,2.48-11.696,6.122-16.507,10.932c-1.168,1.168-2.295,2.405-3.389,3.717c-1.093,1.312-2.077,2.699-2.951,4.154
		c-1.312,1.896-3.279,2.842-5.903,2.842s-4.591-0.946-5.903-2.842c-0.875-1.455-1.858-2.842-2.951-4.154
		c-1.093-1.312-2.224-2.548-3.389-3.717c-4.81-4.81-10.313-8.451-16.506-10.932c-6.197-2.477-12.5-3.717-18.912-3.717
		c-6.416,0-12.718,1.24-18.912,3.717c-6.197,2.48-11.772,6.122-16.725,10.932c-4.667,4.81-8.274,10.276-10.822,16.397
		c-2.552,6.122-3.826,12.537-3.826,19.239c0,6.706,1.274,13.118,3.826,19.24c2.548,6.122,6.156,11.516,10.822,16.179l83.298,83.298
		l10.712-10.713c-1.168-2.767-2.077-5.718-2.732-8.854c-0.656-3.132-0.984-6.303-0.984-9.51c0-6.703,1.274-13.042,3.826-19.021
		c2.549-5.975,6.047-11.184,10.494-15.632c4.444-4.444,9.654-7.942,15.632-10.495c5.976-2.548,12.315-3.826,19.021-3.826
		C208.191,155.723,211.361,156.05,214.498,156.707z M229.692,179.991c-6.853-6.85-15.086-10.276-24.705-10.276
		c-9.62,0-17.856,3.426-24.705,10.276c-6.854,6.853-10.276,15.085-10.276,24.705s3.423,17.856,10.276,24.705
		c6.849,6.853,15.085,10.276,24.705,10.276c9.619,0,17.853-3.423,24.705-10.276c6.85-6.849,10.275-15.085,10.275-24.705
		S236.542,186.843,229.692,179.991z"/>
</g>
<path fill="#F15C25" d="M196.467,188.956c-1.959,0.003-3.609,0.672-4.947,2.01c-1.341,1.341-2.009,2.991-2.009,4.947
	c0,1.962,0.672,3.609,2.01,4.947l4.947,4.947l-4.947,4.947c-1.341,1.341-2.01,2.99-2.01,4.947c0,1.962,0.672,3.609,2.01,4.947
	c1.341,1.341,2.988,2.012,4.947,2.009c1.959,0.003,3.606-0.669,4.947-2.009l4.947-4.947l4.947,4.947
	c1.341,1.341,2.988,2.012,4.947,2.01c1.959,0.002,3.606-0.669,4.947-2.01c1.338-1.338,2.01-2.986,2.01-4.947
	c0-1.957-0.669-3.607-2.01-4.947l-4.947-4.947l4.947-4.947c1.338-1.338,2.01-2.986,2.009-4.947c0-1.957-0.669-3.606-2.009-4.947
	c-1.338-1.338-2.988-2.007-4.947-2.01c-1.959,0.002-3.608,0.672-4.947,2.01l-4.947,4.947l-4.947-4.947
	C200.076,189.628,198.426,188.959,196.467,188.956z"/>
</svg>
